# xmcd
#
# Track frame offsets: 
#        150
#        18057
#        38227
#        57087
#        72653
#        87322
#        103349
#        118681
#        135724
#        148339
#        158040
#        174667
#        198467
#        205470
#        220210
#        229933
#
# Disc length: 3311 seconds
#
# Revision: 1
# Processed by: cddbd v1.5.2PL0 Copyright (c) Steve Scherf et al.
# Submitted via: ExactAudioCopy v0.99pb3
#
DISCID=f50ced10
DTITLE=Kevin Coyne - Room Full Of Fools
DYEAR=2000
DGENRE=Blues
TTITLE0=Sugar Turning Sour
TTITLE1=I'm Wild
TTITLE2=More Than Enough
TTITLE3=God Watches
TTITLE4=Whispering Desert
TTITLE5=Candlelight
TTITLE6=Forgive Me
TTITLE7=The Einstein Song
TTITLE8=Sugar Sugar Samba
TTITLE9=Celestial Bride
TTITLE10=Take Your Pain Away
TTITLE11=Precios
TTITLE12=Speak To Me
TTITLE13=But I Love You
TTITLE14=I Can't Make It
TTITLE15=Room Full Of Fools
EXTD=
EXTT0=
EXTT1=
EXTT2=
EXTT3=
EXTT4=
EXTT5=
EXTT6=
EXTT7=
EXTT8=
EXTT9=
EXTT10=
EXTT11=
EXTT12=
EXTT13=
EXTT14=
EXTT15=
PLAYORDER=
